<svg width="59" height="32" viewBox="0 0 28 15" fill="none" xmlns="http://www.w3.org/2000/svg">
<path fill-rule="evenodd" clip-rule="evenodd" d="M13.9765 14.5128C10.948 14.5128 8.19778 12.6367 7.12631 9.84687L7.08984 9.74609H8.03793L8.05312 9.79098C9.07102 12.1286 11.3923 13.6394 13.9725 13.6394C16.5383 13.6394 18.8585 12.1286 19.8845 9.79098L19.9027 9.74609H20.866L20.8276 9.84687C19.749 12.6367 16.9926 14.5128 13.9765 14.5128" fill="#006FAB"></path>
<path fill-rule="evenodd" clip-rule="evenodd" d="M1.68974 8.88878C1.4763 8.88878 1.26079 8.85036 1.05232 8.77053C0.844848 8.68569 0.657766 8.56192 0.491755 8.39867C0.328903 8.23696 0.202356 8.05289 0.122469 7.84921C0.0424623 7.64561 0 7.434 0 7.2259C0 7.00882 0.0424623 6.79571 0.122469 6.59353C0.202356 6.39096 0.328903 6.20676 0.491755 6.04406C0.657766 5.87991 0.847847 5.75768 1.05232 5.67875C1.46823 5.51203 1.91436 5.51203 2.32519 5.67875C2.53158 5.75768 2.72287 5.87991 2.8868 6.04406L3.163 6.31562L2.61263 6.86513L2.33327 6.59353C2.23815 6.50522 2.13899 6.43979 2.03175 6.39648C1.80921 6.3101 1.57546 6.30856 1.35084 6.39648C1.24056 6.43979 1.13729 6.50522 1.05232 6.59353C0.9602 6.67837 0.894507 6.77169 0.852924 6.88106C0.804465 6.99186 0.781154 7.10509 0.781154 7.21691C0.781154 7.33019 0.804465 7.44351 0.852924 7.55327C0.894507 7.66205 0.962279 7.7609 1.05232 7.84921C1.23145 8.02642 1.4368 8.1128 1.68974 8.1128C1.80921 8.1128 1.92452 8.08775 2.03579 8.04634C2.14511 8.00098 2.24634 7.93606 2.32923 7.84972L2.61263 7.57721L3.163 8.12719L2.8868 8.39867C2.72287 8.56192 2.53158 8.68569 2.32519 8.77053C2.1188 8.85036 1.90629 8.88878 1.68974 8.88878" fill="#006FAB"></path>
<path fill-rule="evenodd" clip-rule="evenodd" d="M5.04471 6.32706C5.00625 6.32706 4.95767 6.33002 4.91309 6.33854C4.72388 6.36201 4.56207 6.44685 4.42237 6.58711C4.24233 6.7627 4.1532 6.97182 4.1532 7.21834C4.1532 7.3182 4.17247 7.41602 4.20482 7.50883L5.14283 6.5821C5.22779 6.50317 5.29968 6.43529 5.35638 6.38043C5.25814 6.34702 5.14987 6.32706 5.04471 6.32706M5.05583 8.88878C4.83524 8.88878 4.61566 8.84737 4.4093 8.76308C4.20691 8.68068 4.02074 8.55841 3.86385 8.39867C3.69692 8.23696 3.57353 8.05289 3.48848 7.84921C3.41264 7.6421 3.37109 7.4295 3.37109 7.21884C3.37109 7.00779 3.41264 6.79571 3.48848 6.59353C3.57353 6.39443 3.69692 6.20676 3.86385 6.04406C4.02778 5.87991 4.21602 5.75768 4.42242 5.67875C4.83836 5.51203 5.28358 5.51203 5.69233 5.67875C5.90276 5.75768 6.093 5.87991 6.25693 6.04406L6.53214 6.31562L4.76135 8.05884C4.86051 8.09627 4.96379 8.11422 5.06899 8.11422C5.10949 8.11422 5.15499 8.1128 5.20057 8.10432C5.39081 8.07631 5.5567 7.99147 5.7024 7.84921L5.97457 7.57721L6.53214 8.12719L6.25693 8.39867C6.09808 8.55841 5.91291 8.68068 5.70744 8.76308C5.50313 8.84737 5.28358 8.88878 5.05583 8.88878" fill="#006FAB"></path>
<path fill-rule="evenodd" clip-rule="evenodd" d="M10.1316 8.88861H9.34032V7.21867C9.34032 7.09593 9.31809 6.98218 9.26947 6.87691C9.22397 6.76659 9.1612 6.67177 9.07819 6.59336C8.99622 6.51108 8.90114 6.44719 8.79195 6.40479C8.56728 6.30646 8.30419 6.30646 8.0856 6.40175C7.97637 6.44719 7.87721 6.51108 7.7962 6.59336C7.71632 6.67177 7.65054 6.76659 7.60296 6.87691C7.55746 6.97922 7.53715 7.09502 7.53715 7.21867V8.88861H6.75V7.21867C6.75 6.98514 6.7925 6.76714 6.87551 6.57241C6.96855 6.36728 7.08894 6.19168 7.23968 6.04389C7.39045 5.89015 7.57362 5.76997 7.78213 5.68308C8.19688 5.50787 8.69683 5.51186 9.09342 5.68757C9.2937 5.76997 9.47794 5.89015 9.63172 6.04389C9.78857 6.1886 9.90896 6.36728 9.99289 6.57241C10.084 6.76714 10.1316 6.98514 10.1316 7.21867V8.88861" fill="#006FAB"></path>
<path fill-rule="evenodd" clip-rule="evenodd" d="M12.0597 8.88878C11.8442 8.88878 11.6297 8.85036 11.4213 8.77053C11.2139 8.68569 11.0266 8.56192 10.8627 8.39867C10.6977 8.23696 10.5723 8.05289 10.4944 7.84921C10.4135 7.64561 10.375 7.434 10.375 7.2259C10.375 7.00882 10.4135 6.79571 10.4944 6.59353C10.5723 6.39096 10.6977 6.20676 10.8627 6.04406C11.0266 5.87991 11.2168 5.75768 11.4213 5.67875C11.8371 5.51203 12.2854 5.51203 12.6921 5.67875C12.9006 5.75768 13.0908 5.87991 13.2558 6.04406L13.5299 6.31562L12.9856 6.86513L12.7023 6.59353C12.6092 6.50522 12.508 6.43979 12.3997 6.39648C12.1781 6.30856 11.9444 6.3101 11.7198 6.39648C11.6105 6.43979 11.5073 6.50522 11.4213 6.59353C11.3322 6.67837 11.2655 6.77169 11.2199 6.88106C11.1784 6.99032 11.1542 7.10509 11.1542 7.21691C11.1542 7.33019 11.1784 7.44351 11.2199 7.55327C11.2655 7.66205 11.3322 7.7609 11.4213 7.84921C11.5984 8.02642 11.8088 8.1128 12.0597 8.1128C12.1802 8.1128 12.2986 8.08775 12.4068 8.04634C12.515 8.00098 12.6173 7.93606 12.6982 7.84972L12.9856 7.57721L13.5299 8.12719L13.2558 8.39867C13.0949 8.56192 12.9046 8.68569 12.6921 8.77053C12.4857 8.85036 12.2772 8.88878 12.0597 8.88878" fill="#006FAB"></path>
<path fill-rule="evenodd" clip-rule="evenodd" d="M15.435 6.32804C15.3105 6.32804 15.1921 6.35442 15.0798 6.4044C14.9675 6.4468 14.8704 6.51069 14.7854 6.59297C14.7054 6.67138 14.6396 6.76675 14.5931 6.87652C14.5506 6.97883 14.5243 7.09463 14.5243 7.21828C14.5243 7.34012 14.5506 7.45888 14.5931 7.56569C14.6396 7.67601 14.7095 7.77331 14.7884 7.85713C14.8704 7.93305 14.9675 7.99746 15.0798 8.0468C15.2974 8.13267 15.5625 8.13318 15.7851 8.04578C15.8964 7.99746 15.9915 7.93396 16.0745 7.85669C16.1575 7.77331 16.2233 7.67601 16.2647 7.56569C16.3173 7.45738 16.3396 7.33811 16.3396 7.21828C16.3396 7.09554 16.3173 6.98179 16.2647 6.87652C16.2233 6.7662 16.1585 6.67434 16.0745 6.59451C15.9915 6.51069 15.8964 6.4468 15.7851 6.4044C15.6758 6.35442 15.5544 6.32804 15.435 6.32804M15.4367 8.88861C15.207 8.88861 14.9844 8.84719 14.78 8.76291C14.5736 8.67511 14.3926 8.55173 14.2368 8.3985C14.0861 8.24685 13.9636 8.06766 13.8756 7.86355C13.7926 7.66188 13.7461 7.44333 13.7461 7.21867C13.7461 6.98514 13.7926 6.76714 13.8756 6.57241C13.9636 6.36728 14.0861 6.19168 14.2368 6.04389C14.3926 5.89015 14.5736 5.76997 14.78 5.68308C15.1919 5.50787 15.6938 5.51186 16.0914 5.68757C16.2978 5.76997 16.479 5.89015 16.6337 6.04389C16.7885 6.1886 16.911 6.36728 16.9949 6.57241C17.0841 6.76714 17.1285 6.98514 17.1285 7.21867C17.1285 7.44333 17.0841 7.66445 16.9949 7.86355C16.911 8.06766 16.7885 8.24783 16.6337 8.3985C16.479 8.55173 16.2978 8.67511 16.0914 8.76291C15.89 8.84475 15.6675 8.88861 15.4367 8.88861" fill="#006FAB"></path>
<path fill-rule="evenodd" clip-rule="evenodd" d="M19.7066 8.88893H17.684V8.11295H19.7066C19.7785 8.11295 19.8433 8.0879 19.8909 8.04203C19.9404 7.99316 19.9647 7.93376 19.9647 7.85784C19.9647 7.787 19.9404 7.73004 19.8909 7.68121C19.8433 7.63428 19.7785 7.61038 19.7066 7.61038H18.4065C18.2628 7.61038 18.1271 7.58391 17.9997 7.53496C17.8701 7.47813 17.7638 7.40319 17.6719 7.31141C17.5778 7.2141 17.5058 7.10524 17.4472 6.98455C17.3967 6.85573 17.3672 6.72194 17.3672 6.57826C17.3672 6.43595 17.3967 6.3037 17.4452 6.17954C17.5039 6.05025 17.5778 5.94344 17.6719 5.85063C17.7638 5.75924 17.8721 5.68789 17.9997 5.63543C18.1271 5.58006 18.2617 5.55371 18.4065 5.55371H20.4331V6.32875H18.4065C18.3335 6.32875 18.2779 6.35513 18.2303 6.40112C18.1787 6.44995 18.1565 6.50537 18.1565 6.57826C18.1565 6.65213 18.1818 6.70999 18.2324 6.76336C18.2779 6.81128 18.3335 6.8308 18.4065 6.8308H19.7066C19.8514 6.8308 19.9839 6.86169 20.1104 6.9186C20.2389 6.96755 20.3512 7.03839 20.4412 7.13072C20.5395 7.224 20.6173 7.33235 20.6648 7.4631C20.7236 7.58135 20.7509 7.71565 20.7509 7.85784C20.7509 8.00113 20.7255 8.13634 20.6648 8.26259C20.6173 8.38391 20.5395 8.49471 20.4412 8.59008C20.3512 8.68336 20.2389 8.75625 20.1063 8.81206C19.9819 8.86298 19.8514 8.88893 19.7066 8.88893" fill="#006FAB"></path>
<path fill-rule="evenodd" clip-rule="evenodd" d="M22.677 8.88893C22.4474 8.88893 22.2247 8.84507 22.0223 8.76323C21.8159 8.67334 21.6298 8.55205 21.48 8.39882C21.3272 8.24815 21.2078 8.06798 21.1168 7.86387C21.0297 7.6622 20.9883 7.44365 20.9883 7.21706V5.55371H21.7775V7.21706C21.7775 7.34083 21.7977 7.45959 21.8483 7.5664C21.8939 7.67672 21.9586 7.77402 22.0385 7.85784C22.1175 7.93376 22.2187 7.99817 22.326 8.04751C22.5404 8.13239 22.8126 8.13389 23.0321 8.04649C23.1394 7.99817 23.2366 7.93376 23.3155 7.8574C23.4005 7.77402 23.4652 7.67826 23.5088 7.5664C23.5564 7.45809 23.5857 7.33882 23.5857 7.21706V5.55371H24.3698V7.21706C24.3698 7.44365 24.3273 7.66477 24.2373 7.86387C24.1492 8.06798 24.0319 8.24717 23.8761 8.39882C23.7222 8.55205 23.5361 8.67543 23.3337 8.76323C23.1313 8.84507 22.9128 8.88893 22.677 8.88893" fill="#006FAB"></path>
<path fill-rule="evenodd" clip-rule="evenodd" d="M26.3137 6.32745C26.1903 6.32745 26.075 6.35383 25.9626 6.40077C25.8513 6.4462 25.7481 6.5101 25.6651 6.59238C25.5862 6.67079 25.5224 6.76616 25.4739 6.87593C25.4304 6.97824 25.4071 7.09301 25.4071 7.21576C25.4071 7.33953 25.4304 7.45829 25.4739 7.5651C25.5224 7.67542 25.5882 7.77272 25.6691 7.85653C25.7481 7.93246 25.8513 7.99687 25.9626 8.04621C26.1761 8.13208 26.4504 8.13259 26.6608 8.04518C26.7691 7.99687 26.8672 7.93246 26.9481 7.8561C27.0281 7.77272 27.0949 7.67542 27.1373 7.5651C27.191 7.45679 27.2163 7.33752 27.2163 7.21576V6.32745H26.3137ZM26.313 8.88784C26.0833 8.88784 25.8617 8.84398 25.6573 8.76214C25.4529 8.67434 25.2688 8.55096 25.117 8.39773C24.9612 8.24706 24.8377 8.06792 24.7497 7.86278C24.6606 7.66111 24.6172 7.44256 24.6172 7.21597C24.6172 6.98437 24.6637 6.76637 24.7477 6.57165C24.8377 6.36651 24.9612 6.18784 25.117 6.04218C25.2688 5.88938 25.455 5.7692 25.6573 5.68231C25.8617 5.59798 26.0833 5.55262 26.313 5.55262H27.2156V4.27344H28.0018V7.21597C28.0018 7.44256 27.9542 7.66368 27.8672 7.86278C27.7822 8.06689 27.6587 8.24706 27.503 8.39773C27.3552 8.55096 27.1741 8.67225 26.9696 8.76214C26.7613 8.84398 26.5397 8.88784 26.313 8.88784V8.88784Z" fill="#006FAB"></path>
<path fill-rule="evenodd" clip-rule="evenodd" d="M19.9635 4.77375L19.9453 4.72874C19.7672 4.3245 19.5345 3.9218 19.2532 3.53097C19.1358 3.5699 19.0053 3.58737 18.888 3.58737C18.2332 3.58737 17.6949 3.06232 17.6949 2.4146C17.6949 2.29083 17.7172 2.16797 17.7537 2.05024C16.6588 1.28068 15.3707 0.870919 14.0221 0.870919C11.4379 0.870919 9.11259 2.38415 8.10277 4.72776L8.08454 4.77118H7.14453L7.18 4.67337C8.26055 1.87811 11.0088 0 14.0241 0C15.5741 0 17.0535 0.477603 18.3102 1.37645C18.4903 1.27516 18.6876 1.22479 18.899 1.22479C19.5568 1.22479 20.0961 1.75525 20.0961 2.40703C20.0961 2.61063 20.0485 2.80232 19.9514 2.97259C20.3298 3.4866 20.6506 4.07054 20.8742 4.67337L20.9157 4.77118L19.9635 4.77375" fill="#006FAB"></path>
<path fill-rule="evenodd" clip-rule="evenodd" d="M18.9009 1.7793C18.557 1.7793 18.2695 2.05874 18.2695 2.39909C18.2695 2.73947 18.557 3.01592 18.9009 3.01592C19.247 3.01592 19.5253 2.73947 19.5253 2.39909C19.5253 2.05874 19.247 1.7793 18.9009 1.7793" fill="#EA862D"></path>
</svg>
